M48
; DRILL file KiCad 10.0.4 date 2026-07-21T23:01:35
; FORMAT={-:-/ absolute / metric / decimal}
; #@! TF.CreationDate,2026-07-21T23:01:35-04:00
; #@! TF.GenerationSoftware,Kicad,Pcbnew,10.0.4
; #@! TF.FileFunction,Plated,1,2,PTH
FMAT,2
METRIC
; #@! TA.AperFunction,Plated,PTH,ComponentDrill
T1C0.700
; #@! TA.AperFunction,Plated,PTH,ViaDrill
T2C1.000
; #@! TA.AperFunction,Plated,PTH,ComponentDrill
T3C1.000
%
G90
G05
T1
X33.02Y38.1
X33.02Y33.02
T2
X16.857Y38.1
X16.857Y35.56
X16.857Y33.02
X16.857Y30.48
X16.857Y27.94
X16.857Y25.4
X16.857Y22.86
X16.857Y20.32
X19.398Y38.1
X19.398Y35.56
X19.398Y33.02
X19.398Y30.48
X19.398Y27.94
X19.398Y25.4
X19.398Y22.86
X19.398Y20.32
X21.938Y38.1
X21.938Y35.56
X21.938Y33.02
X21.938Y30.48
X21.938Y27.94
X21.938Y25.4
X21.938Y22.86
X21.938Y20.32
X24.477Y38.1
X24.477Y35.56
X24.477Y33.02
X24.477Y30.48
X24.477Y27.94
X24.477Y25.4
X24.477Y22.86
X24.477Y20.32
T3
X36.255Y36.835
X36.255Y34.295
M30
