ISO-10303-21;
HEADER;
FILE_DESCRIPTION (( 'STEP AP214' ),
    '1' );
FILE_NAME ('NeedleValveStopper.STEP',
    '2026-07-24T03:27:16',
    ( '' ),
    ( '' ),
    'SwSTEP 2.0',
    'SolidWorks 2025',
    '' );
FILE_SCHEMA (( 'AUTOMOTIVE_DESIGN' ));
ENDSEC;

DATA;
#1 = AXIS2_PLACEMENT_3D ( 'NONE', #502, #604, #608 ) ;
#2 = DIRECTION ( 'NONE',  ( 1.000000000000000000, 0.000000000000000000, 0.000000000000000000 ) ) ;
#3 = EDGE_CURVE ( 'NONE', #346, #276, #630, .T. ) ;
#4 = DIRECTION ( 'NONE',  ( -0.000000000000000000, -0.000000000000000000, 1.000000000000000000 ) ) ;
#5 = DIRECTION ( 'NONE',  ( 0.000000000000000000, 0.000000000000000000, 1.000000000000000000 ) ) ;
#6 = DIRECTION ( 'NONE',  ( 1.000000000000000000, 0.000000000000000000, 0.000000000000000000 ) ) ;
#7 = EDGE_LOOP ( 'NONE', ( #183, #578, #329, #284 ) ) ;
#8 = DIRECTION ( 'NONE',  ( 0.000000000000000000, 0.000000000000000000, -1.000000000000000000 ) ) ;
#9 = VERTEX_POINT ( 'NONE', #99 ) ;
#10 = COLOUR_RGB ( '',0.7921568627450980005, 0.8196078431372548767, 0.9333333333333333481 ) ;
#11 = DIRECTION ( 'NONE',  ( -0.000000000000000000, -0.000000000000000000, 1.000000000000000000 ) ) ;
#12 = EDGE_CURVE ( 'NONE', #527, #188, #421, .T. ) ;
#13 = DIRECTION ( 'NONE',  ( -0.000000000000000000, -0.000000000000000000, 1.000000000000000000 ) ) ;
#14 = CARTESIAN_POINT ( 'NONE',  ( 0.08949965443392123021, -0.1027320512605909703, -0.05003937007874013909 ) ) ;
#15 =( NAMED_UNIT ( * ) PLANE_ANGLE_UNIT ( ) SI_UNIT ( $, .RADIAN. ) );
#16 = DIRECTION ( 'NONE',  ( -0.000000000000000000, -0.000000000000000000, -1.000000000000000000 ) ) ;
#17 = ORIENTED_EDGE ( 'NONE', *, *, #545, .T. ) ;
#18 = CARTESIAN_POINT ( 'NONE',  ( 0.1533467814122904671, -0.02998044580207578566, -0.04999999999999998196 ) ) ;
#19 = AXIS2_PLACEMENT_3D ( 'NONE', #584, #128, #334 ) ;
#20 = CARTESIAN_POINT ( 'NONE',  ( -0.1732050807568886464, -0.09999999999999838185, 0.2500000000000000000 ) ) ;
#21 = ORIENTED_EDGE ( 'NONE', *, *, #401, .F. ) ;
#22 = CARTESIAN_POINT ( 'NONE',  ( 0.000000000000000000, 0.000000000000000000, 0.2500000000000000000 ) ) ;
#23 = VECTOR ( 'NONE', #325, 39.37007874015748143 ) ;
#24 = PRODUCT_DEFINITION_SHAPE ( 'NONE', 'NONE',  #637 ) ;
#25 = LINE ( 'NONE', #231, #597 ) ;
#26 = CIRCLE ( 'NONE', #194, 0.06374999999999998723 ) ;
#27 = ORIENTED_EDGE ( 'NONE', *, *, #100, .T. ) ;
#28 = ADVANCED_FACE ( 'NONE', ( #49 ), #514, .T. ) ;
#29 = CARTESIAN_POINT ( 'NONE',  ( 0.2681985117133101615, 0.000000000000000000, -0.04999999999999998196 ) ) ;
#30 = ORIENTED_EDGE ( 'NONE', *, *, #321, .T. ) ;
#31 = DIRECTION ( 'NONE',  ( 0.000000000000000000, 0.000000000000000000, 1.000000000000000000 ) ) ;
#32 = ORIENTED_EDGE ( 'NONE', *, *, #172, .F. ) ;
#33 = EDGE_CURVE ( 'NONE', #557, #439, #658, .T. ) ;
#34 = AXIS2_PLACEMENT_3D ( 'NONE', #461, #371, #519 ) ;
#35 = ORIENTED_EDGE ( 'NONE', *, *, #470, .F. ) ;
#36 = ORIENTED_EDGE ( 'NONE', *, *, #460, .T. ) ;
#37 = CYLINDRICAL_SURFACE ( 'NONE', #259, 0.1562500000000000000 ) ;
#38 = EDGE_LOOP ( 'NONE', ( #151, #113, #469, #348 ) ) ;
#39 = DIRECTION ( 'NONE',  ( -0.000000000000000000, 0.000000000000000000, 1.000000000000000000 ) ) ;
#40 = AXIS2_PLACEMENT_3D ( 'NONE', #223, #377, #212 ) ;
#41 = PLANE ( 'NONE',  #238 ) ;
#42 = AXIS2_PLACEMENT_3D ( 'NONE', #258, #465, #112 ) ;
#43 = ORIENTED_EDGE ( 'NONE', *, *, #401, .T. ) ;
#44 = EDGE_CURVE ( 'NONE', #542, #583, #433, .T. ) ;
#45 = CARTESIAN_POINT ( 'NONE',  ( -0.03365904010205052893, 0.1458600746268657045, -0.04999999999999998196 ) ) ;
#46 = ORIENTED_EDGE ( 'NONE', *, *, #3, .T. ) ;
#47 = DIRECTION ( 'NONE',  ( 0.000000000000000000, 0.000000000000000000, 1.000000000000000000 ) ) ;
#48 = CARTESIAN_POINT ( 'NONE',  ( 0.08949965443392123021, -0.1027320512605909703, -0.04999999999999998196 ) ) ;
#49 = FACE_OUTER_BOUND ( 'NONE', #437, .T. ) ;
#50 = AXIS2_PLACEMENT_3D ( 'NONE', #652, #442, #612 ) ;
#51 = CARTESIAN_POINT ( 'NONE',  ( 0.05070956302476580663, 0.1477924311926605283, 0.2500000000000000000 ) ) ;
#52 = ADVANCED_FACE ( 'NONE', ( #164 ), #114, .T. ) ;
#53 = FACE_OUTER_BOUND ( 'NONE', #537, .T. ) ;
#54 = LINE ( 'NONE', #267, #450 ) ;
#55 = VECTOR ( 'NONE', #150, 39.37007874015748143 ) ;
#56 = FACE_OUTER_BOUND ( 'NONE', #210, .T. ) ;
#57 = CARTESIAN_POINT ( 'NONE',  ( 0.03365904010205052893, 0.1458600746268657045, -0.05003937007874013909 ) ) ;
#58 = ORIENTED_EDGE ( 'NONE', *, *, #529, .T. ) ;
#59 = CARTESIAN_POINT ( 'NONE',  ( 0.1562500000000000000, 0.000000000000000000, 0.2500000000000000000 ) ) ;
#60 = CARTESIAN_POINT ( 'NONE',  ( 0.000000000000000000, 0.000000000000000000, -0.05003937007874013909 ) ) ;
#61 = MECHANICAL_DESIGN_GEOMETRIC_PRESENTATION_REPRESENTATION (  '', ( #388 ), #184 ) ;
#62 = DIRECTION ( 'NONE',  ( -0.000000000000000000, -0.000000000000000000, 1.000000000000000000 ) ) ;
#63 = AXIS2_PLACEMENT_3D ( 'NONE', #472, #182, #170 ) ;
#64 = LINE ( 'NONE', #68, #237 ) ;
#65 = VECTOR ( 'NONE', #495, 39.37007874015748143 ) ;
#66 = VERTEX_POINT ( 'NONE', #320 ) ;
#67 = DIRECTION ( 'NONE',  ( 0.000000000000000000, 0.000000000000000000, 1.000000000000000000 ) ) ;
#68 = CARTESIAN_POINT ( 'NONE',  ( -0.03365904010205052893, 0.1458600746268657045, -0.05003937007874013909 ) ) ;
#69 = ORIENTED_EDGE ( 'NONE', *, *, #370, .F. ) ;
#70 = DIRECTION ( 'NONE',  ( 1.000000000000000000, -2.561107494060246545E-15, 0.000000000000000000 ) ) ;
#71 = AXIS2_PLACEMENT_3D ( 'NONE', #535, #179, #488 ) ;
#72 = ADVANCED_FACE ( 'NONE', ( #53 ), #523, .F. ) ;
#73 = DIRECTION ( 'NONE',  ( -0.000000000000000000, -0.000000000000000000, -1.000000000000000000 ) ) ;
#74 = EDGE_CURVE ( 'NONE', #346, #351, #257, .T. ) ;
#75 = ORIENTED_EDGE ( 'NONE', *, *, #486, .T. ) ;
#76 = CARTESIAN_POINT ( 'NONE',  ( -0.1094550807568886452, -0.09999999999999838185, -0.04999999999999998196 ) ) ;
#77 = VERTEX_POINT ( 'NONE', #610 ) ;
#78 = UNCERTAINTY_MEASURE_WITH_UNIT (LENGTH_MEASURE( 1.000000000000000082E-05 ), #602, 'distance_accuracy_value', 'NONE');
#79 = CARTESIAN_POINT ( 'NONE',  ( 0.04421873895759579481, 0.1288750000000000173, -0.05003937007874013909 ) ) ;
#80 = ORIENTED_EDGE ( 'NONE', *, *, #74, .T. ) ;
#81 = ADVANCED_FACE ( 'NONE', ( #56 ), #201, .F. ) ;
#82 = CIRCLE ( 'NONE', #168, 0.02000000000000000042 ) ;
#83 = VERTEX_POINT ( 'NONE', #405 ) ;
#84 = ORIENTED_EDGE ( 'NONE', *, *, #233, .F. ) ;
#85 = AXIS2_PLACEMENT_3D ( 'NONE', #158, #455, #296 ) ;
#86 = DIRECTION ( 'NONE',  ( 0.000000000000000000, 0.000000000000000000, 1.000000000000000000 ) ) ;
#87 = VERTEX_POINT ( 'NONE', #605 ) ;
#88 = DIRECTION ( 'NONE',  ( 1.000000000000000000, 0.000000000000000000, 0.000000000000000000 ) ) ;
#89 = CARTESIAN_POINT ( 'NONE',  ( 0.1026372183875243205, -0.1178119853905859604, -0.05003937007874013909 ) ) ;
#90 = ADVANCED_FACE ( 'NONE', ( #464 ), #413, .T. ) ;
#91 = ORIENTED_EDGE ( 'NONE', *, *, #343, .F. ) ;
#92 = EDGE_CURVE ( 'NONE', #531, #103, #572, .T. ) ;
#93 = DIRECTION ( 'NONE',  ( 0.000000000000000000, 0.000000000000000000, 1.000000000000000000 ) ) ;
#94 = CARTESIAN_POINT ( 'NONE',  ( 0.000000000000000000, 0.000000000000000000, -0.04999999999999998196 ) ) ;
#95 = VERTEX_POINT ( 'NONE', #526 ) ;
#96 = CIRCLE ( 'NONE', #63, 0.01999999999999999001 ) ;
#97 = CARTESIAN_POINT ( 'NONE',  ( -0.1337183933915176703, -0.02614294873940815542, -0.04999999999999998196 ) ) ;
#98 = CARTESIAN_POINT ( 'NONE',  ( 0.1026372183875243205, -0.1178119853905859604, -0.04999999999999998196 ) ) ;
#99 = CARTESIAN_POINT ( 'NONE',  ( -0.2681985117133101615, -3.284484489057891950E-17, -0.04999999999999998196 ) ) ;
#100 = EDGE_CURVE ( 'NONE', #344, #140, #515, .T. ) ;
#101 = DIRECTION ( 'NONE',  ( 0.000000000000000000, 0.000000000000000000, 1.000000000000000000 ) ) ;
#102 = DIRECTION ( 'NONE',  ( -0.000000000000000000, -0.000000000000000000, 1.000000000000000000 ) ) ;
#103 = VERTEX_POINT ( 'NONE', #480 ) ;
#104 = CIRCLE ( 'NONE', #457, 0.06374999999999998723 ) ;
#105 = AXIS2_PLACEMENT_3D ( 'NONE', #60, #417, #6 ) ;
#106 = CARTESIAN_POINT ( 'NONE',  ( -0.1094890099737353822, -0.1020796211088067645, -0.04999999999999998196 ) ) ;
#107 = ORIENTED_EDGE ( 'NONE', *, *, #213, .T. ) ;
#108 = AXIS2_PLACEMENT_3D ( 'NONE', #528, #67, #633 ) ;
#109 = FACE_OUTER_BOUND ( 'NONE', #456, .T. ) ;
#110 = ORIENTED_EDGE ( 'NONE', *, *, #33, .T. ) ;
#111 = ORIENTED_EDGE ( 'NONE', *, *, #642, .T. ) ;
#112 = DIRECTION ( 'NONE',  ( 1.000000000000000000, 0.000000000000000000, 0.000000000000000000 ) ) ;
#113 = ORIENTED_EDGE ( 'NONE', *, *, #440, .F. ) ;
#114 = CONICAL_SURFACE ( 'NONE', #307, 0.2500000000000000000, 0.3490658503988668393 ) ;
#115 = DIRECTION ( 'NONE',  ( 1.000000000000000000, 0.000000000000000000, 0.000000000000000000 ) ) ;
#116 = DIRECTION ( 'NONE',  ( 1.000000000000000000, 1.874797642710769084E-15, 0.000000000000000000 ) ) ;
#117 = EDGE_LOOP ( 'NONE', ( #447, #376, #17, #494 ) ) ;
#118 = DIRECTION ( 'NONE',  ( 1.000000000000000000, 0.000000000000000000, 0.000000000000000000 ) ) ;
#119 = CLOSED_SHELL ( 'NONE', ( #392, #581, #219, #28, #290, #636, #52, #90, #361, #449, #414, #575, #72, #615, #186, #385, #587, #143, #81 ) ) ;
#120 = FACE_OUTER_BOUND ( 'NONE', #280, .T. ) ;
#121 = AXIS2_PLACEMENT_3D ( 'NONE', #317, #5, #416 ) ;
#122 = EDGE_LOOP ( 'NONE', ( #197, #443, #593, #80 ) ) ;
#123 = DIRECTION ( 'NONE',  ( -0.000000000000000000, 0.000000000000000000, 1.000000000000000000 ) ) ;
#124 = EDGE_CURVE ( 'NONE', #276, #531, #26, .T. ) ;
#125 = APPLICATION_CONTEXT ( 'automotive_design' ) ;
#126 = FACE_OUTER_BOUND ( 'NONE', #448, .T. ) ;
#127 = ORIENTED_EDGE ( 'NONE', *, *, #100, .F. ) ;
#128 = DIRECTION ( 'NONE',  ( -0.000000000000000000, -0.000000000000000000, 1.000000000000000000 ) ) ;
#129 = ORIENTED_EDGE ( 'NONE', *, *, #496, .F. ) ;
#130 = AXIS2_PLACEMENT_3D ( 'NONE', #274, #365, #173 ) ;
#131 = CIRCLE ( 'NONE', #139, 0.06374999999999998723 ) ;
#132 = DIRECTION ( 'NONE',  ( -0.000000000000000000, 0.000000000000000000, 1.000000000000000000 ) ) ;
#133 = EDGE_CURVE ( 'NONE', #225, #390, #624, .T. ) ;
#134 = ORIENTED_EDGE ( 'NONE', *, *, #172, .T. ) ;
#135 = VERTEX_POINT ( 'NONE', #328 ) ;
#136 = EDGE_CURVE ( 'NONE', #396, #531, #25, .T. ) ;
#137 = CIRCLE ( 'NONE', #508, 0.01999999999999999001 ) ;
#138 = EDGE_LOOP ( 'NONE', ( #453, #30, #332, #341, #190, #313, #493, #394, #58, #288, #69, #339, #596, #36, #485 ) ) ;
#139 = AXIS2_PLACEMENT_3D ( 'NONE', #576, #218, #424 ) ;
#140 = VERTEX_POINT ( 'NONE', #427 ) ;
#141 = ADVANCED_BREP_SHAPE_REPRESENTATION ( 'NeedleValveStopper', ( #340, #121 ), #609 ) ;
#142 = DIRECTION ( 'NONE',  ( -0.000000000000000000, -0.000000000000000000, -1.000000000000000000 ) ) ;
#143 = ADVANCED_FACE ( 'NONE', ( #126 ), #533, .F. ) ;
#144 = DIRECTION ( 'NONE',  ( 1.000000000000000000, 0.000000000000000000, -0.000000000000000000 ) ) ;
#145 = ORIENTED_EDGE ( 'NONE', *, *, #440, .T. ) ;
#146 = CARTESIAN_POINT ( 'NONE',  ( 0.04421873895759579481, 0.1288750000000000173, 0.2500000000000000000 ) ) ;
#147 = ORIENTED_EDGE ( 'NONE', *, *, #124, .F. ) ;
#148 = CARTESIAN_POINT ( 'NONE',  ( 0.000000000000000000, 0.000000000000000000, 0.2500000000000000000 ) ) ;
#149 = CIRCLE ( 'NONE', #214, 0.02000000000000000042 ) ;
#150 = DIRECTION ( 'NONE',  ( -0.3420201433256696011, -4.188538737677002858E-17, -0.9396926207859080948 ) ) ;
#151 = ORIENTED_EDGE ( 'NONE', *, *, #321, .F. ) ;
#152 = EDGE_CURVE ( 'NONE', #396, #221, #487, .T. ) ;
#153 = CIRCLE ( 'NONE', #356, 0.1562500000000000000 ) ;
#154 = CIRCLE ( 'NONE', #291, 0.2681985117133101615 ) ;
#155 = DIRECTION ( 'NONE',  ( 1.000000000000000000, 0.000000000000000000, 0.000000000000000000 ) ) ;
#156 = CARTESIAN_POINT ( 'NONE',  ( -0.04421873895759580175, 0.1288750000000000173, -0.05003937007874013909 ) ) ;
#157 =( CONVERSION_BASED_UNIT ( 'INCH', #558 ) LENGTH_UNIT ( ) NAMED_UNIT ( #446 ) );
#158 = CARTESIAN_POINT ( 'NONE',  ( 0.1732050807568873418, -0.1000000000000008521, -0.05003937007874013909 ) ) ;
#159 = CARTESIAN_POINT ( 'NONE',  ( -0.1732050807568886464, -0.09999999999999838185, -0.05003937007874013909 ) ) ;
#160 = CARTESIAN_POINT ( 'NONE',  ( 0.000000000000000000, 0.000000000000000000, -0.05003937007874013909 ) ) ;
#161 = ORIENTED_EDGE ( 'NONE', *, *, #263, .F. ) ;
#162 = FACE_OUTER_BOUND ( 'NONE', #645, .T. ) ;
#163 = EDGE_CURVE ( 'NONE', #557, #95, #96, .T. ) ;
#164 = FACE_OUTER_BOUND ( 'NONE', #7, .T. ) ;
#165 = FACE_OUTER_BOUND ( 'NONE', #117, .T. ) ;
#166 = APPLICATION_PROTOCOL_DEFINITION ( 'draft international standard', 'automotive_design', 1998, #125 ) ;
#167 = DIRECTION ( 'NONE',  ( -0.000000000000000000, -0.000000000000000000, -1.000000000000000000 ) ) ;
#168 = AXIS2_PLACEMENT_3D ( 'NONE', #400, #142, #302 ) ;
#169 = DIRECTION ( 'NONE',  ( 0.000000000000000000, 0.000000000000000000, 1.000000000000000000 ) ) ;
#170 = DIRECTION ( 'NONE',  ( 1.000000000000000000, 0.000000000000000000, 0.000000000000000000 ) ) ;
#171 = ORIENTED_EDGE ( 'NONE', *, *, #352, .F. ) ;
#172 = EDGE_CURVE ( 'NONE', #83, #542, #64, .T. ) ;
#173 = DIRECTION ( 'NONE',  ( 1.000000000000000000, 0.000000000000000000, 0.000000000000000000 ) ) ;
#174 = DIRECTION ( 'NONE',  ( -0.000000000000000000, -0.000000000000000000, -1.000000000000000000 ) ) ;
#175 = CIRCLE ( 'NONE', #546, 0.01999999999999999001 ) ;
#176 = VERTEX_POINT ( 'NONE', #436 ) ;
#177 = CARTESIAN_POINT ( 'NONE',  ( 0.1533467814122904671, -0.02998044580207578566, 0.2500000000000000000 ) ) ;
#178 = EDGE_CURVE ( 'NONE', #66, #225, #153, .T. ) ;
#179 = DIRECTION ( 'NONE',  ( -0.000000000000000000, -0.000000000000000000, -1.000000000000000000 ) ) ;
#180 = PRODUCT ( 'NeedleValveStopper', 'NeedleValveStopper', '', ( #518 ) ) ;
#181 = VERTEX_POINT ( 'NONE', #220 ) ;
#182 = DIRECTION ( 'NONE',  ( 0.000000000000000000, 0.000000000000000000, 1.000000000000000000 ) ) ;
#183 = ORIENTED_EDGE ( 'NONE', *, *, #598, .F. ) ;
#184 =( GEOMETRIC_REPRESENTATION_CONTEXT ( 3 ) GLOBAL_UNCERTAINTY_ASSIGNED_CONTEXT ( ( #337 ) ) GLOBAL_UNIT_ASSIGNED_CONTEXT ( ( #157, #198, #305 ) ) REPRESENTATION_CONTEXT ( 'NONE', 'WORKASPACE' ) );
#185 = CARTESIAN_POINT ( 'NONE',  ( 0.1431480500757847940, -0.04378045351805864849, -0.05003937007874013909 ) ) ;
#186 = ADVANCED_FACE ( 'NONE', ( #120 ), #474, .F. ) ;
#187 = ORIENTED_EDGE ( 'NONE', *, *, #311, .T. ) ;
#188 = VERTEX_POINT ( 'NONE', #29 ) ;
#189 = VECTOR ( 'NONE', #555, 39.37007874015748143 ) ;
#190 = ORIENTED_EDGE ( 'NONE', *, *, #333, .T. ) ;
#191 = AXIS2_PLACEMENT_3D ( 'NONE', #278, #482, #227 ) ;
#192 = CYLINDRICAL_SURFACE ( 'NONE', #85, 0.06375000000000000111 ) ;
#193 = ORIENTED_EDGE ( 'NONE', *, *, #263, .T. ) ;
#194 = AXIS2_PLACEMENT_3D ( 'NONE', #20, #132, #224 ) ;
#195 = PLANE ( 'NONE',  #626 ) ;
#196 = CARTESIAN_POINT ( 'NONE',  ( -0.1431480500757853769, -0.04378045351805657376, 0.2500000000000000000 ) ) ;
#197 = ORIENTED_EDGE ( 'NONE', *, *, #200, .F. ) ;
#198 =( NAMED_UNIT ( * ) PLANE_ANGLE_UNIT ( ) SI_UNIT ( $, .RADIAN. ) );
#199 = DIRECTION ( 'NONE',  ( 1.000000000000000000, 0.000000000000000000, 0.000000000000000000 ) ) ;
#200 = EDGE_CURVE ( 'NONE', #221, #351, #104, .T. ) ;
#201 = CYLINDRICAL_SURFACE ( 'NONE', #479, 0.02000000000000000042 ) ;
#202 = SURFACE_SIDE_STYLE ('',( #349 ) ) ;
#203 = CARTESIAN_POINT ( 'NONE',  ( 0.000000000000000000, 0.000000000000000000, 0.000000000000000000 ) ) ;
#204 = CARTESIAN_POINT ( 'NONE',  ( 0.000000000000000000, 0.000000000000000000, 0.2500000000000000000 ) ) ;
#205 = DIRECTION ( 'NONE',  ( -0.000000000000000000, -0.000000000000000000, 1.000000000000000000 ) ) ;
#206 = DIRECTION ( 'NONE',  ( 1.000000000000000000, 0.000000000000000000, 0.000000000000000000 ) ) ;
#207 = CYLINDRICAL_SURFACE ( 'NONE', #336, 0.06374999999999998723 ) ;
#208 = SHAPE_DEFINITION_REPRESENTATION ( #24, #141 ) ;
#209 = DIRECTION ( 'NONE',  ( -0.000000000000000000, 0.000000000000000000, 1.000000000000000000 ) ) ;
#210 = EDGE_LOOP ( 'NONE', ( #497, #32, #432, #384 ) ) ;
#211 = EDGE_CURVE ( 'NONE', #140, #554, #561, .T. ) ;
#212 = DIRECTION ( 'NONE',  ( 1.000000000000000000, 0.000000000000000000, 0.000000000000000000 ) ) ;
#213 = EDGE_CURVE ( 'NONE', #501, #176, #342, .T. ) ;
#214 = AXIS2_PLACEMENT_3D ( 'NONE', #509, #93, #362 ) ;
#215 = VERTEX_POINT ( 'NONE', #638 ) ;
#216 = FACE_OUTER_BOUND ( 'NONE', #357, .T. ) ;
#217 = LINE ( 'NONE', #423, #426 ) ;
#218 = DIRECTION ( 'NONE',  ( -0.000000000000000000, 0.000000000000000000, 1.000000000000000000 ) ) ;
#219 = ADVANCED_FACE ( 'NONE', ( #386 ), #389, .T. ) ;
#220 = CARTESIAN_POINT ( 'NONE',  ( -0.1590074414334491926, -2.615882015489364538E-17, 0.2500000000000000000 ) ) ;
#221 = VERTEX_POINT ( 'NONE', #76 ) ;
#222 = VECTOR ( 'NONE', #13, 39.37007874015748143 ) ;
#223 = CARTESIAN_POINT ( 'NONE',  ( 0.08949965443392123021, -0.1027320512605909703, -0.05003937007874013909 ) ) ;
#224 = DIRECTION ( 'NONE',  ( 1.000000000000000000, 0.000000000000000000, 0.000000000000000000 ) ) ;
#225 = VERTEX_POINT ( 'NONE', #588 ) ;
#226 = VECTOR ( 'NONE', #11, 39.37007874015748143 ) ;
#227 = DIRECTION ( 'NONE',  ( 1.000000000000000000, 3.481767050748570931E-15, 0.000000000000000000 ) ) ;
#228 = AXIS2_PLACEMENT_3D ( 'NONE', #283, #167, #582 ) ;
#229 = DIRECTION ( 'NONE',  ( 1.000000000000000000, 0.000000000000000000, 0.000000000000000000 ) ) ;
#230 = ORIENTED_EDGE ( 'NONE', *, *, #504, .T. ) ;
#231 = CARTESIAN_POINT ( 'NONE',  ( -0.1431480500757853769, -0.04378045351805657376, -0.05003937007874013909 ) ) ;
#232 = ORIENTED_EDGE ( 'NONE', *, *, #136, .T. ) ;
#233 = EDGE_CURVE ( 'NONE', #95, #140, #338, .T. ) ;
#234 = DIRECTION ( 'NONE',  ( 1.000000000000000000, 0.000000000000000000, 0.000000000000000000 ) ) ;
#235 = ORIENTED_EDGE ( 'NONE', *, *, #333, .F. ) ;
#236 = CIRCLE ( 'NONE', #268, 0.1562500000000000000 ) ;
#237 = VECTOR ( 'NONE', #378, 39.37007874015748143 ) ;
#238 = AXIS2_PLACEMENT_3D ( 'NONE', #293, #245, #144 ) ;
#239 = ORIENTED_EDGE ( 'NONE', *, *, #285, .F. ) ;
#240 = EDGE_CURVE ( 'NONE', #439, #135, #217, .T. ) ;
#241 = ORIENTED_EDGE ( 'NONE', *, *, #540, .T. ) ;
#242 = ORIENTED_EDGE ( 'NONE', *, *, #271, .F. ) ;
#243 = LINE ( 'NONE', #185, #189 ) ;
#244 = VECTOR ( 'NONE', #62, 39.37007874015748143 ) ;
#245 = DIRECTION ( 'NONE',  ( 0.000000000000000000, 0.000000000000000000, 1.000000000000000000 ) ) ;
#246 = EDGE_LOOP ( 'NONE', ( #324, #266, #46, #534, #507, #402, #230, #568, #294, #466, #651, #107, #550, #27, #641 ) ) ;
#247 = EDGE_CURVE ( 'NONE', #527, #181, #592, .T. ) ;
#248 = DIRECTION ( 'NONE',  ( -0.000000000000000000, -0.000000000000000000, 1.000000000000000000 ) ) ;
#249 = CARTESIAN_POINT ( 'NONE',  ( 0.1533467814122904949, -0.02998044580207579260, -0.05003937007874013909 ) ) ;
#250 = EDGE_LOOP ( 'NONE', ( #254, #75 ) ) ;
#251 = CARTESIAN_POINT ( 'NONE',  ( 0.04421873895759579481, 0.1288750000000000173, -0.04999999999999998196 ) ) ;
#252 = CARTESIAN_POINT ( 'NONE',  ( 0.1337183933915173095, -0.02614294873941009137, -0.05003937007874013909 ) ) ;
#253 = AXIS2_PLACEMENT_3D ( 'NONE', #148, #659, #454 ) ;
#254 = ORIENTED_EDGE ( 'NONE', *, *, #247, .T. ) ;
#255 = CARTESIAN_POINT ( 'NONE',  ( 0.1094890099737340361, -0.1020796211088082495, 0.2500000000000000000 ) ) ;
#256 = DIRECTION ( 'NONE',  ( -0.000000000000000000, -0.000000000000000000, 1.000000000000000000 ) ) ;
#257 = LINE ( 'NONE', #654, #491 ) ;
#258 = CARTESIAN_POINT ( 'NONE',  ( 0.000000000000000000, 0.000000000000000000, -0.04999999999999998196 ) ) ;
#259 = AXIS2_PLACEMENT_3D ( 'NONE', #398, #205, #155 ) ;
#260 = APPLICATION_CONTEXT ( 'automotive_design' ) ;
#261 = DIRECTION ( 'NONE',  ( -0.000000000000000000, -0.000000000000000000, -1.000000000000000000 ) ) ;
#262 = EDGE_CURVE ( 'NONE', #501, #390, #373, .T. ) ;
#263 = EDGE_CURVE ( 'NONE', #176, #77, #243, .T. ) ;
#264 = DIRECTION ( 'NONE',  ( 1.000000000000000000, 0.000000000000000000, 0.000000000000000000 ) ) ;
#265 = APPLICATION_PROTOCOL_DEFINITION ( 'draft international standard', 'automotive_design', 1998, #260 ) ;
#266 = ORIENTED_EDGE ( 'NONE', *, *, #285, .T. ) ;
#267 = CARTESIAN_POINT ( 'NONE',  ( -0.1533467814122909390, -0.02998044580207357909, -0.05003937007874013909 ) ) ;
#268 = AXIS2_PLACEMENT_3D ( 'NONE', #590, #39, #310 ) ;
#269 = DIRECTION ( 'NONE',  ( 0.000000000000000000, 0.000000000000000000, -1.000000000000000000 ) ) ;
#270 = LINE ( 'NONE', #57, #226 ) ;
#271 = EDGE_CURVE ( 'NONE', #66, #603, #363, .T. ) ;
#272 = DIRECTION ( 'NONE',  ( -0.000000000000000000, -0.000000000000000000, 1.000000000000000000 ) ) ;
#273 = ORIENTED_EDGE ( 'NONE', *, *, #594, .T. ) ;
#274 = CARTESIAN_POINT ( 'NONE',  ( 0.000000000000000000, 0.000000000000000000, -0.05003937007874013909 ) ) ;
#275 = CARTESIAN_POINT ( 'NONE',  ( -0.08949965443392256248, -0.1027320512605897768, -0.05003937007874013909 ) ) ;
#276 = VERTEX_POINT ( 'NONE', #458 ) ;
#277 = AXIS2_PLACEMENT_3D ( 'NONE', #275, #383, #430 ) ;
#278 = CARTESIAN_POINT ( 'NONE',  ( 0.1732050807568873418, -0.1000000000000008521, -0.04999999999999998196 ) ) ;
#279 = DIRECTION ( 'NONE',  ( 1.000000000000000000, 0.000000000000000000, 0.000000000000000000 ) ) ;
#280 = EDGE_LOOP ( 'NONE', ( #235, #393, #239, #632 ) ) ;
#281 = AXIS2_PLACEMENT_3D ( 'NONE', #160, #4, #476 ) ;
#282 = VECTOR ( 'NONE', #272, 39.37007874015748143 ) ;
#283 = CARTESIAN_POINT ( 'NONE',  ( 0.08949965443392123021, -0.1027320512605909703, 0.2500000000000000000 ) ) ;
#284 = ORIENTED_EDGE ( 'NONE', *, *, #623, .T. ) ;
#285 = EDGE_CURVE ( 'NONE', #135, #346, #82, .T. ) ;
#286 = ORIENTED_EDGE ( 'NONE', *, *, #565, .F. ) ;
#287 = AXIS2_PLACEMENT_3D ( 'NONE', #159, #364, #562 ) ;
#288 = ORIENTED_EDGE ( 'NONE', *, *, #496, .T. ) ;
#289 = AXIS2_PLACEMENT_3D ( 'NONE', #318, #560, #408 ) ;
#290 = ADVANCED_FACE ( 'NONE', ( #354, #649 ), #195, .F. ) ;
#291 = AXIS2_PLACEMENT_3D ( 'NONE', #94, #86, #199 ) ;
#292 = EDGE_LOOP ( 'NONE', ( #387, #301, #591, #635 ) ) ;
#293 = CARTESIAN_POINT ( 'NONE',  ( 0.000000000000000000, 0.000000000000000000, 0.2500000000000000000 ) ) ;
#294 = ORIENTED_EDGE ( 'NONE', *, *, #343, .T. ) ;
#295 = DIRECTION ( 'NONE',  ( -0.000000000000000000, -0.000000000000000000, -1.000000000000000000 ) ) ;
#296 = DIRECTION ( 'NONE',  ( 1.000000000000000000, 0.000000000000000000, 0.000000000000000000 ) ) ;
#297 = ORIENTED_EDGE ( 'NONE', *, *, #642, .F. ) ;
#298 = CIRCLE ( 'NONE', #500, 0.06375000000000000111 ) ;
#299 = SURFACE_STYLE_USAGE ( .BOTH. , #202 ) ;
#300 = CYLINDRICAL_SURFACE ( 'NONE', #579, 0.02000000000000000736 ) ;
#301 = ORIENTED_EDGE ( 'NONE', *, *, #133, .T. ) ;
#302 = DIRECTION ( 'NONE',  ( 1.000000000000000000, 0.000000000000000000, 0.000000000000000000 ) ) ;
#303 = DIRECTION ( 'NONE',  ( -0.000000000000000000, -0.000000000000000000, 1.000000000000000000 ) ) ;
#304 = DIRECTION ( 'NONE',  ( 0.3420201433256696011, 0.000000000000000000, -0.9396926207859080948 ) ) ;
#305 =( NAMED_UNIT ( * ) SI_UNIT ( $, .STERADIAN. ) SOLID_ANGLE_UNIT ( ) );
#306 = CARTESIAN_POINT ( 'NONE',  ( 0.03365904010205052893, 0.1458600746268657045, 0.2500000000000000000 ) ) ;
#307 = AXIS2_PLACEMENT_3D ( 'NONE', #203, #570, #206 ) ;
#308 = DIRECTION ( 'NONE',  ( 1.000000000000000000, 0.000000000000000000, 0.000000000000000000 ) ) ;
#309 = ORIENTED_EDGE ( 'NONE', *, *, #434, .T. ) ;
#310 = DIRECTION ( 'NONE',  ( 1.000000000000000000, 0.000000000000000000, 0.000000000000000000 ) ) ;
#311 = EDGE_CURVE ( 'NONE', #135, #554, #477, .T. ) ;
#312 = AXIS2_PLACEMENT_3D ( 'NONE', #22, #123, #532 ) ;
#313 = ORIENTED_EDGE ( 'NONE', *, *, #33, .F. ) ;
#314 = EDGE_LOOP ( 'NONE', ( #286, #589, #127, #35 ) ) ;
#315 = AXIS2_PLACEMENT_3D ( 'NONE', #79, #375, #573 ) ;
#316 = CARTESIAN_POINT ( 'NONE',  ( 0.000000000000000000, 0.2000000000000000111, -0.05003937007874013909 ) ) ;
#317 = CARTESIAN_POINT ( 'NONE',  ( 0.000000000000000000, 0.000000000000000000, 0.000000000000000000 ) ) ;
#318 = CARTESIAN_POINT ( 'NONE',  ( 0.000000000000000000, 0.000000000000000000, 0.000000000000000000 ) ) ;
#319 = CARTESIAN_POINT ( 'NONE',  ( -0.1026372183875258748, -0.1178119853905846143, -0.04999999999999998196 ) ) ;
#320 = CARTESIAN_POINT ( 'NONE',  ( 0.05070956302476580663, 0.1477924311926605283, -0.04999999999999998196 ) ) ;
#321 = EDGE_CURVE ( 'NONE', #87, #396, #137, .T. ) ;
#322 = LINE ( 'NONE', #525, #244 ) ;
#323 = DIRECTION ( 'NONE',  ( -0.000000000000000000, -0.000000000000000000, 1.000000000000000000 ) ) ;
#324 = ORIENTED_EDGE ( 'NONE', *, *, #311, .F. ) ;
#325 = DIRECTION ( 'NONE',  ( -0.000000000000000000, -0.000000000000000000, 1.000000000000000000 ) ) ;
#326 = EDGE_CURVE ( 'NONE', #176, #344, #298, .T. ) ;
#327 = VECTOR ( 'NONE', #102, 39.37007874015748143 ) ;
#328 = CARTESIAN_POINT ( 'NONE',  ( -0.1026372183875258748, -0.1178119853905846143, 0.2500000000000000000 ) ) ;
#329 = ORIENTED_EDGE ( 'NONE', *, *, #12, .T. ) ;
#330 = CARTESIAN_POINT ( 'NONE',  ( 0.1590074414334491926, 0.000000000000000000, 0.2500000000000000000 ) ) ;
#331 = DIRECTION ( 'NONE',  ( 1.000000000000000000, 0.000000000000000000, 0.000000000000000000 ) ) ;
#332 = ORIENTED_EDGE ( 'NONE', *, *, #152, .T. ) ;
#333 = EDGE_CURVE ( 'NONE', #351, #439, #149, .T. ) ;
#334 = DIRECTION ( 'NONE',  ( 1.000000000000000000, 0.000000000000000000, 0.000000000000000000 ) ) ;
#335 = ORIENTED_EDGE ( 'NONE', *, *, #213, .F. ) ;
#336 = AXIS2_PLACEMENT_3D ( 'NONE', #316, #419, #471 ) ;
#337 = UNCERTAINTY_MEASURE_WITH_UNIT (LENGTH_MEASURE( 1.000000000000000082E-05 ), #157, 'distance_accuracy_value', 'NONE');
#338 = LINE ( 'NONE', #538, #222 ) ;
#339 = ORIENTED_EDGE ( 'NONE', *, *, #178, .F. ) ;
#340 = MANIFOLD_SOLID_BREP ( 'Fillet1', #119 ) ;
#341 = ORIENTED_EDGE ( 'NONE', *, *, #200, .T. ) ;
#342 = CIRCLE ( 'NONE', #71, 0.02000000000000000736 ) ;
#343 = EDGE_CURVE ( 'NONE', #611, #543, #553, .T. ) ;
#344 = VERTEX_POINT ( 'NONE', #255 ) ;
#345 = VECTOR ( 'NONE', #304, 39.37007874015748143 ) ;
#346 = VERTEX_POINT ( 'NONE', #462 ) ;
#347 = FACE_OUTER_BOUND ( 'NONE', #481, .T. ) ;
#348 = ORIENTED_EDGE ( 'NONE', *, *, #136, .F. ) ;
#349 = SURFACE_STYLE_FILL_AREA ( #406 ) ;
#350 = EDGE_CURVE ( 'NONE', #467, #103, #236, .T. ) ;
#351 = VERTEX_POINT ( 'NONE', #106 ) ;
#352 = EDGE_CURVE ( 'NONE', #543, #66, #512, .T. ) ;
#353 = CIRCLE ( 'NONE', #441, 0.1562500000000000000 ) ;
#354 = FACE_OUTER_BOUND ( 'NONE', #600, .T. ) ;
#355 = CARTESIAN_POINT ( 'NONE',  ( 0.03365904010205052893, 0.1458600746268657045, -0.04999999999999998196 ) ) ;
#356 = AXIS2_PLACEMENT_3D ( 'NONE', #577, #73, #634 ) ;
#357 = EDGE_LOOP ( 'NONE', ( #84, #445, #297, #492 ) ) ;
#358 =( LENGTH_UNIT ( ) NAMED_UNIT ( * ) SI_UNIT ( $, .METRE. ) );
#359 = LINE ( 'NONE', #463, #327 ) ;
#360 = DIRECTION ( 'NONE',  ( -0.000000000000000000, -0.000000000000000000, 1.000000000000000000 ) ) ;
#361 = ADVANCED_FACE ( 'NONE', ( #109 ), #563, .F. ) ;
#362 = DIRECTION ( 'NONE',  ( 1.000000000000000000, 0.000000000000000000, 0.000000000000000000 ) ) ;
#363 = CIRCLE ( 'NONE', #395, 0.02000000000000000042 ) ;
#364 = DIRECTION ( 'NONE',  ( -0.000000000000000000, -0.000000000000000000, 1.000000000000000000 ) ) ;
#365 = DIRECTION ( 'NONE',  ( -0.000000000000000000, -0.000000000000000000, 1.000000000000000000 ) ) ;
#366 = PRODUCT_RELATED_PRODUCT_CATEGORY ( 'part', '', ( #180 ) ) ;
#367 = AXIS2_PLACEMENT_3D ( 'NONE', #435, #580, #70 ) ;
#368 = ORIENTED_EDGE ( 'NONE', *, *, #486, .F. ) ;
#369 = DIRECTION ( 'NONE',  ( -0.000000000000000000, -0.000000000000000000, -1.000000000000000000 ) ) ;
#370 = EDGE_CURVE ( 'NONE', #225, #428, #353, .T. ) ;
#371 = DIRECTION ( 'NONE',  ( -0.000000000000000000, -0.000000000000000000, -1.000000000000000000 ) ) ;
#372 = CARTESIAN_POINT ( 'NONE',  ( -0.1431480500757853769, -0.04378045351805657376, -0.04999999999999998196 ) ) ;
#373 = CIRCLE ( 'NONE', #644, 0.1562500000000000000 ) ;
#374 = AXIS2_PLACEMENT_3D ( 'NONE', #516, #261, #279 ) ;
#375 = DIRECTION ( 'NONE',  ( -0.000000000000000000, -0.000000000000000000, 1.000000000000000000 ) ) ;
#376 = ORIENTED_EDGE ( 'NONE', *, *, #370, .T. ) ;
#377 = DIRECTION ( 'NONE',  ( -0.000000000000000000, -0.000000000000000000, 1.000000000000000000 ) ) ;
#378 = DIRECTION ( 'NONE',  ( 0.000000000000000000, 0.000000000000000000, -1.000000000000000000 ) ) ;
#379 = ORIENTED_EDGE ( 'NONE', *, *, #350, .T. ) ;
#380 = AXIS2_PLACEMENT_3D ( 'NONE', #617, #209, #308 ) ;
#381 = CARTESIAN_POINT ( 'NONE',  ( -0.1094550807568886452, -0.09999999999999838185, -0.05003937007874013909 ) ) ;
#382 = PRODUCT_DEFINITION_FORMATION_WITH_SPECIFIED_SOURCE ( 'ANY', '', #180, .NOT_KNOWN. ) ;
#383 = DIRECTION ( 'NONE',  ( -0.000000000000000000, -0.000000000000000000, 1.000000000000000000 ) ) ;
#384 = ORIENTED_EDGE ( 'NONE', *, *, #594, .F. ) ;
#385 = ADVANCED_FACE ( 'NONE', ( #216 ), #569, .F. ) ;
#386 = FACE_OUTER_BOUND ( 'NONE', #122, .T. ) ;
#387 = ORIENTED_EDGE ( 'NONE', *, *, #178, .T. ) ;
#388 = STYLED_ITEM ( 'NONE', ( #607 ), #340 ) ;
#389 = CYLINDRICAL_SURFACE ( 'NONE', #19, 0.06374999999999998723 ) ;
#390 = VERTEX_POINT ( 'NONE', #59 ) ;
#391 = DIRECTION ( 'NONE',  ( 1.000000000000000000, 0.000000000000000000, -0.000000000000000000 ) ) ;
#392 = ADVANCED_FACE ( 'NONE', ( #517 ), #468, .F. ) ;
#393 = ORIENTED_EDGE ( 'NONE', *, *, #74, .F. ) ;
#394 = ORIENTED_EDGE ( 'NONE', *, *, #565, .T. ) ;
#395 = AXIS2_PLACEMENT_3D ( 'NONE', #251, #101, #505 ) ;
#396 = VERTEX_POINT ( 'NONE', #372 ) ;
#397 = AXIS2_PLACEMENT_3D ( 'NONE', #625, #169, #118 ) ;
#398 = CARTESIAN_POINT ( 'NONE',  ( 0.000000000000000000, 0.000000000000000000, -0.05003937007874013909 ) ) ;
#399 = ORIENTED_EDGE ( 'NONE', *, *, #326, .F. ) ;
#400 = CARTESIAN_POINT ( 'NONE',  ( -0.08949965443392256248, -0.1027320512605897768, 0.2500000000000000000 ) ) ;
#401 = EDGE_CURVE ( 'NONE', #603, #611, #270, .T. ) ;
#402 = ORIENTED_EDGE ( 'NONE', *, *, #350, .F. ) ;
#403 = CARTESIAN_POINT ( 'NONE',  ( 0.000000000000000000, 0.000000000000000000, -0.04999999999999998196 ) ) ;
#404 = CARTESIAN_POINT ( 'NONE',  ( 0.1026372183875243205, -0.1178119853905859604, 0.2500000000000000000 ) ) ;
#405 = CARTESIAN_POINT ( 'NONE',  ( -0.03365904010205052893, 0.1458600746268657045, 0.2500000000000000000 ) ) ;
#406 = FILL_AREA_STYLE ('',( #655 ) ) ;
#407 = LENGTH_MEASURE_WITH_UNIT ( LENGTH_MEASURE( 0.02539999999999999897 ), #452 );
#408 = DIRECTION ( 'NONE',  ( 1.000000000000000000, 0.000000000000000000, 0.000000000000000000 ) ) ;
#409 = EDGE_CURVE ( 'NONE', #221, #276, #629, .T. ) ;
#410 = AXIS2_PLACEMENT_3D ( 'NONE', #552, #653, #547 ) ;
#411 = DIRECTION ( 'NONE',  ( 1.000000000000000000, 0.000000000000000000, 0.000000000000000000 ) ) ;
#412 = CYLINDRICAL_SURFACE ( 'NONE', #410, 0.01999999999999999001 ) ;
#413 = CYLINDRICAL_SURFACE ( 'NONE', #287, 0.06374999999999998723 ) ;
#414 = ADVANCED_FACE ( 'NONE', ( #165 ), #415, .F. ) ;
#415 = CYLINDRICAL_SURFACE ( 'NONE', #281, 0.1562500000000000000 ) ;
#416 = DIRECTION ( 'NONE',  ( 1.000000000000000000, 0.000000000000000000, 0.000000000000000000 ) ) ;
#417 = DIRECTION ( 'NONE',  ( -0.000000000000000000, -0.000000000000000000, 1.000000000000000000 ) ) ;
#418 = CIRCLE ( 'NONE', #1, 0.2681985117133101615 ) ;
#419 = DIRECTION ( 'NONE',  ( -0.000000000000000000, -0.000000000000000000, 1.000000000000000000 ) ) ;
#420 = CIRCLE ( 'NONE', #42, 0.1562500000000000000 ) ;
#421 = LINE ( 'NONE', #614, #345 ) ;
#422 = CARTESIAN_POINT ( 'NONE',  ( 0.000000000000000000, 0.2000000000000000111, -0.04999999999999998196 ) ) ;
#423 = CARTESIAN_POINT ( 'NONE',  ( -0.1026372183875258748, -0.1178119853905846143, -0.05003937007874013909 ) ) ;
#424 = DIRECTION ( 'NONE',  ( 1.000000000000000000, 0.000000000000000000, 0.000000000000000000 ) ) ;
#425 =( NAMED_UNIT ( * ) SI_UNIT ( $, .STERADIAN. ) SOLID_ANGLE_UNIT ( ) );
#426 = VECTOR ( 'NONE', #248, 39.37007874015748143 ) ;
#427 = CARTESIAN_POINT ( 'NONE',  ( 0.1094996544339212202, -0.1027320512605909703, 0.2500000000000000000 ) ) ;
#428 = VERTEX_POINT ( 'NONE', #18 ) ;
#429 = DIRECTION ( 'NONE',  ( 0.000000000000000000, 0.000000000000000000, -1.000000000000000000 ) ) ;
#430 = DIRECTION ( 'NONE',  ( 1.000000000000000000, 0.000000000000000000, 0.000000000000000000 ) ) ;
#431 = CIRCLE ( 'NONE', #367, 0.02000000000000000042 ) ;
#432 = ORIENTED_EDGE ( 'NONE', *, *, #504, .F. ) ;
#433 = CIRCLE ( 'NONE', #606, 0.02000000000000000042 ) ;
#434 = EDGE_CURVE ( 'NONE', #87, #583, #420, .T. ) ;
#435 = CARTESIAN_POINT ( 'NONE',  ( -0.04421873895759580175, 0.1288750000000000173, 0.2500000000000000000 ) ) ;
#436 = CARTESIAN_POINT ( 'NONE',  ( 0.1431480500757847940, -0.04378045351805866237, 0.2500000000000000000 ) ) ;
#437 = EDGE_LOOP ( 'NONE', ( #368, #585, #241, #628 ) ) ;
#438 = CARTESIAN_POINT ( 'NONE',  ( 0.08949965443392123021, -0.1027320512605909703, 0.2500000000000000000 ) ) ;
#439 = VERTEX_POINT ( 'NONE', #319 ) ;
#440 = EDGE_CURVE ( 'NONE', #103, #87, #54, .T. ) ;
#441 = AXIS2_PLACEMENT_3D ( 'NONE', #619, #369, #264 ) ;
#442 = DIRECTION ( 'NONE',  ( -0.000000000000000000, 0.000000000000000000, 1.000000000000000000 ) ) ;
#443 = ORIENTED_EDGE ( 'NONE', *, *, #409, .T. ) ;
#444 = VECTOR ( 'NONE', #256, 39.37007874015748143 ) ;
#445 = ORIENTED_EDGE ( 'NONE', *, *, #163, .F. ) ;
#446 = DIMENSIONAL_EXPONENTS ( 1.000000000000000000, 0.000000000000000000, 0.000000000000000000, 0.000000000000000000, 0.000000000000000000, 0.000000000000000000, 0.000000000000000000 ) ;
#447 = ORIENTED_EDGE ( 'NONE', *, *, #133, .F. ) ;
#448 = EDGE_LOOP ( 'NONE', ( #242, #171, #91, #21 ) ) ;
#449 = ADVANCED_FACE ( 'NONE', ( #162 ), #207, .T. ) ;
#450 = VECTOR ( 'NONE', #8, 39.37007874015748143 ) ;
#451 = DIRECTION ( 'NONE',  ( -0.000000000000000000, 0.000000000000000000, 1.000000000000000000 ) ) ;
#452 =( LENGTH_UNIT ( ) NAMED_UNIT ( * ) SI_UNIT ( $, .METRE. ) );
#453 = ORIENTED_EDGE ( 'NONE', *, *, #434, .F. ) ;
#454 = DIRECTION ( 'NONE',  ( 1.000000000000000000, 0.000000000000000000, 0.000000000000000000 ) ) ;
#455 = DIRECTION ( 'NONE',  ( -0.000000000000000000, -0.000000000000000000, 1.000000000000000000 ) ) ;
#456 = EDGE_LOOP ( 'NONE', ( #379, #145, #309, #273 ) ) ;
#457 = AXIS2_PLACEMENT_3D ( 'NONE', #631, #174, #229 ) ;
#458 = CARTESIAN_POINT ( 'NONE',  ( -0.1094550807568886452, -0.09999999999999838185, 0.2500000000000000000 ) ) ;
#459 = FACE_OUTER_BOUND ( 'NONE', #250, .T. ) ;
#460 = EDGE_CURVE ( 'NONE', #603, #542, #536, .T. ) ;
#461 = CARTESIAN_POINT ( 'NONE',  ( 0.000000000000000000, 0.000000000000000000, -0.04999999999999998196 ) ) ;
#462 = CARTESIAN_POINT ( 'NONE',  ( -0.1094890099737353822, -0.1020796211088067645, 0.2500000000000000000 ) ) ;
#463 = CARTESIAN_POINT ( 'NONE',  ( -0.05070956302476582744, 0.1477924311926605561, -0.05003937007874013909 ) ) ;
#464 = FACE_OUTER_BOUND ( 'NONE', #639, .T. ) ;
#465 = DIRECTION ( 'NONE',  ( -0.000000000000000000, -0.000000000000000000, -1.000000000000000000 ) ) ;
#466 = ORIENTED_EDGE ( 'NONE', *, *, #520, .F. ) ;
#467 = VERTEX_POINT ( 'NONE', #473 ) ;
#468 = CYLINDRICAL_SURFACE ( 'NONE', #647, 0.01999999999999999001 ) ;
#469 = ORIENTED_EDGE ( 'NONE', *, *, #92, .F. ) ;
#470 = EDGE_CURVE ( 'NONE', #215, #344, #322, .T. ) ;
#471 = DIRECTION ( 'NONE',  ( 1.000000000000000000, 0.000000000000000000, 0.000000000000000000 ) ) ;
#472 = CARTESIAN_POINT ( 'NONE',  ( 0.08949965443392123021, -0.1027320512605909703, -0.04999999999999998196 ) ) ;
#473 = CARTESIAN_POINT ( 'NONE',  ( -0.05070956302476582050, 0.1477924311926605283, 0.2500000000000000000 ) ) ;
#474 = CYLINDRICAL_SURFACE ( 'NONE', #277, 0.02000000000000000042 ) ;
#475 = ORIENTED_EDGE ( 'NONE', *, *, #470, .T. ) ;
#476 = DIRECTION ( 'NONE',  ( 1.000000000000000000, 0.000000000000000000, 0.000000000000000000 ) ) ;
#477 = CIRCLE ( 'NONE', #50, 0.1562500000000000000 ) ;
#478 = EDGE_CURVE ( 'NONE', #83, #611, #131, .T. ) ;
#479 = AXIS2_PLACEMENT_3D ( 'NONE', #156, #360, #2 ) ;
#480 = CARTESIAN_POINT ( 'NONE',  ( -0.1533467814122908834, -0.02998044580207356868, 0.2500000000000000000 ) ) ;
#481 = EDGE_LOOP ( 'NONE', ( #539, #475, #399, #193 ) ) ;
#482 = DIRECTION ( 'NONE',  ( -0.000000000000000000, -0.000000000000000000, -1.000000000000000000 ) ) ;
#483 = CARTESIAN_POINT ( 'NONE',  ( 0.1562500000000000000, 0.000000000000000000, -0.05003937007874013909 ) ) ;
#484 = CIRCLE ( 'NONE', #191, 0.06375000000000000111 ) ;
#485 = ORIENTED_EDGE ( 'NONE', *, *, #44, .T. ) ;
#486 = EDGE_CURVE ( 'NONE', #181, #527, #620, .T. ) ;
#487 = CIRCLE ( 'NONE', #566, 0.06374999999999998723 ) ;
#488 = DIRECTION ( 'NONE',  ( 1.000000000000000000, 0.000000000000000000, 0.000000000000000000 ) ) ;
#489 = ORIENTED_EDGE ( 'NONE', *, *, #545, .F. ) ;
#490 = PRODUCT_DEFINITION_CONTEXT ( 'detailed design', #260, 'design' ) ;
#491 = VECTOR ( 'NONE', #269, 39.37007874015748143 ) ;
#492 = ORIENTED_EDGE ( 'NONE', *, *, #211, .F. ) ;
#493 = ORIENTED_EDGE ( 'NONE', *, *, #163, .T. ) ;
#494 = ORIENTED_EDGE ( 'NONE', *, *, #262, .T. ) ;
#495 = DIRECTION ( 'NONE',  ( 0.000000000000000000, 0.000000000000000000, -1.000000000000000000 ) ) ;
#496 = EDGE_CURVE ( 'NONE', #77, #428, #564, .T. ) ;
#497 = ORIENTED_EDGE ( 'NONE', *, *, #44, .F. ) ;
#498 = DIRECTION ( 'NONE',  ( 1.000000000000000000, -3.414809992080329122E-15, 0.000000000000000000 ) ) ;
#499 = FACE_OUTER_BOUND ( 'NONE', #38, .T. ) ;
#500 = AXIS2_PLACEMENT_3D ( 'NONE', #551, #601, #88 ) ;
#501 = VERTEX_POINT ( 'NONE', #177 ) ;
#502 = CARTESIAN_POINT ( 'NONE',  ( 0.000000000000000000, 0.000000000000000000, -0.04999999999999998196 ) ) ;
#503 = ORIENTED_EDGE ( 'NONE', *, *, #623, .F. ) ;
#504 = EDGE_CURVE ( 'NONE', #467, #83, #431, .T. ) ;
#505 = DIRECTION ( 'NONE',  ( 1.000000000000000000, 0.000000000000000000, 0.000000000000000000 ) ) ;
#506 = FACE_OUTER_BOUND ( 'NONE', #292, .T. ) ;
#507 = ORIENTED_EDGE ( 'NONE', *, *, #92, .T. ) ;
#508 = AXIS2_PLACEMENT_3D ( 'NONE', #97, #47, #234 ) ;
#509 = CARTESIAN_POINT ( 'NONE',  ( -0.08949965443392256248, -0.1027320512605897768, -0.04999999999999998196 ) ) ;
#510 = DIRECTION ( 'NONE',  ( 0.000000000000000000, 0.000000000000000000, 1.000000000000000000 ) ) ;
#511 = DIRECTION ( 'NONE',  ( 0.000000000000000000, 0.000000000000000000, 1.000000000000000000 ) ) ;
#512 = LINE ( 'NONE', #522, #640 ) ;
#513 = CIRCLE ( 'NONE', #312, 0.1562500000000000000 ) ;
#514 = CONICAL_SURFACE ( 'NONE', #289, 0.2500000000000000000, 0.3490658503988668393 ) ;
#515 = CIRCLE ( 'NONE', #228, 0.01999999999999999001 ) ;
#516 = CARTESIAN_POINT ( 'NONE',  ( -0.1337183933915176703, -0.02614294873940815542, 0.2500000000000000000 ) ) ;
#517 = FACE_OUTER_BOUND ( 'NONE', #314, .T. ) ;
#518 = PRODUCT_CONTEXT ( 'NONE', #125, 'mechanical' ) ;
#519 = DIRECTION ( 'NONE',  ( 1.000000000000000000, 8.881784197001252323E-16, 0.000000000000000000 ) ) ;
#520 = EDGE_CURVE ( 'NONE', #390, #543, #513, .T. ) ;
#521 = ORIENTED_EDGE ( 'NONE', *, *, #409, .F. ) ;
#522 = CARTESIAN_POINT ( 'NONE',  ( 0.05070956302476582050, 0.1477924311926605561, -0.05003937007874013909 ) ) ;
#523 = CYLINDRICAL_SURFACE ( 'NONE', #105, 0.1562500000000000000 ) ;
#524 = PRESENTATION_LAYER_ASSIGNMENT (  '', '', ( #388 ) ) ;
#525 = CARTESIAN_POINT ( 'NONE',  ( 0.1094890099737340500, -0.1020796211088082495, -0.05003937007874013909 ) ) ;
#526 = CARTESIAN_POINT ( 'NONE',  ( 0.1094996544339212202, -0.1027320512605909703, -0.04999999999999998196 ) ) ;
#527 = VERTEX_POINT ( 'NONE', #330 ) ;
#528 = CARTESIAN_POINT ( 'NONE',  ( 0.1337183933915173095, -0.02614294873941009137, -0.04999999999999998196 ) ) ;
#529 = EDGE_CURVE ( 'NONE', #215, #77, #484, .T. ) ;
#530 = CARTESIAN_POINT ( 'NONE',  ( -0.1732050807568886464, -0.09999999999999838185, -0.04999999999999998196 ) ) ;
#531 = VERTEX_POINT ( 'NONE', #196 ) ;
#532 = DIRECTION ( 'NONE',  ( 1.000000000000000000, 0.000000000000000000, 0.000000000000000000 ) ) ;
#533 = CYLINDRICAL_SURFACE ( 'NONE', #315, 0.02000000000000000042 ) ;
#534 = ORIENTED_EDGE ( 'NONE', *, *, #124, .T. ) ;
#535 = CARTESIAN_POINT ( 'NONE',  ( 0.1337183933915173095, -0.02614294873941009137, 0.2500000000000000000 ) ) ;
#536 = CIRCLE ( 'NONE', #595, 0.06374999999999998723 ) ;
#537 = EDGE_LOOP ( 'NONE', ( #110, #643, #187, #111 ) ) ;
#538 = CARTESIAN_POINT ( 'NONE',  ( 0.1094996544339212202, -0.1027320512605909703, -0.05003937007874013909 ) ) ;
#539 = ORIENTED_EDGE ( 'NONE', *, *, #529, .F. ) ;
#540 = EDGE_CURVE ( 'NONE', #9, #188, #418, .T. ) ;
#541 = AXIS2_PLACEMENT_3D ( 'NONE', #438, #16, #331 ) ;
#542 = VERTEX_POINT ( 'NONE', #45 ) ;
#543 = VERTEX_POINT ( 'NONE', #51 ) ;
#544 = DIMENSIONAL_EXPONENTS ( 1.000000000000000000, 0.000000000000000000, 0.000000000000000000, 0.000000000000000000, 0.000000000000000000, 0.000000000000000000, 0.000000000000000000 ) ;
#545 = EDGE_CURVE ( 'NONE', #428, #501, #599, .T. ) ;
#546 = AXIS2_PLACEMENT_3D ( 'NONE', #48, #510, #559 ) ;
#547 = DIRECTION ( 'NONE',  ( 1.000000000000000000, 0.000000000000000000, 0.000000000000000000 ) ) ;
#548 = ORIENTED_EDGE ( 'NONE', *, *, #540, .F. ) ;
#549 = CARTESIAN_POINT ( 'NONE',  ( -0.05070956302476582050, 0.1477924311926605283, -0.04999999999999998196 ) ) ;
#550 = ORIENTED_EDGE ( 'NONE', *, *, #326, .T. ) ;
#551 = CARTESIAN_POINT ( 'NONE',  ( 0.1732050807568873418, -0.1000000000000008521, 0.2500000000000000000 ) ) ;
#552 = CARTESIAN_POINT ( 'NONE',  ( -0.1337183933915176703, -0.02614294873940815542, -0.05003937007874013909 ) ) ;
#553 = CIRCLE ( 'NONE', #586, 0.02000000000000000042 ) ;
#554 = VERTEX_POINT ( 'NONE', #404 ) ;
#555 = DIRECTION ( 'NONE',  ( 0.000000000000000000, 0.000000000000000000, -1.000000000000000000 ) ) ;
#556 = FACE_BOUND ( 'NONE', #246, .T. ) ;
#557 = VERTEX_POINT ( 'NONE', #98 ) ;
#558 = LENGTH_MEASURE_WITH_UNIT ( LENGTH_MEASURE( 0.02539999999999999897 ), #358 );
#559 = DIRECTION ( 'NONE',  ( 1.000000000000000000, 0.000000000000000000, 0.000000000000000000 ) ) ;
#560 = DIRECTION ( 'NONE',  ( -0.000000000000000000, -0.000000000000000000, -1.000000000000000000 ) ) ;
#561 = CIRCLE ( 'NONE', #541, 0.01999999999999999001 ) ;
#562 = DIRECTION ( 'NONE',  ( 1.000000000000000000, 0.000000000000000000, 0.000000000000000000 ) ) ;
#563 = CYLINDRICAL_SURFACE ( 'NONE', #130, 0.1562500000000000000 ) ;
#564 = CIRCLE ( 'NONE', #108, 0.02000000000000000736 ) ;
#565 = EDGE_CURVE ( 'NONE', #95, #215, #175, .T. ) ;
#566 = AXIS2_PLACEMENT_3D ( 'NONE', #530, #627, #116 ) ;
#567 = EDGE_LOOP ( 'NONE', ( #129, #161, #335, #489 ) ) ;
#568 = ORIENTED_EDGE ( 'NONE', *, *, #478, .T. ) ;
#569 = CYLINDRICAL_SURFACE ( 'NONE', #40, 0.01999999999999999001 ) ;
#570 = DIRECTION ( 'NONE',  ( -0.000000000000000000, -0.000000000000000000, -1.000000000000000000 ) ) ;
#571 = DIRECTION ( 'NONE',  ( -0.000000000000000000, -0.000000000000000000, -1.000000000000000000 ) ) ;
#572 = CIRCLE ( 'NONE', #374, 0.01999999999999999001 ) ;
#573 = DIRECTION ( 'NONE',  ( 1.000000000000000000, 0.000000000000000000, 0.000000000000000000 ) ) ;
#574 = ORIENTED_EDGE ( 'NONE', *, *, #152, .F. ) ;
#575 = ADVANCED_FACE ( 'NONE', ( #347 ), #192, .T. ) ;
#576 = CARTESIAN_POINT ( 'NONE',  ( 0.000000000000000000, 0.2000000000000000111, 0.2500000000000000000 ) ) ;
#577 = CARTESIAN_POINT ( 'NONE',  ( 0.000000000000000000, 0.000000000000000000, -0.04999999999999998196 ) ) ;
#578 = ORIENTED_EDGE ( 'NONE', *, *, #247, .F. ) ;
#579 = AXIS2_PLACEMENT_3D ( 'NONE', #252, #303, #650 ) ;
#580 = DIRECTION ( 'NONE',  ( -0.000000000000000000, -0.000000000000000000, -1.000000000000000000 ) ) ;
#581 = ADVANCED_FACE ( 'NONE', ( #506 ), #37, .F. ) ;
#582 = DIRECTION ( 'NONE',  ( 1.000000000000000000, 8.110173731190785145E-14, 0.000000000000000000 ) ) ;
#583 = VERTEX_POINT ( 'NONE', #549 ) ;
#584 = CARTESIAN_POINT ( 'NONE',  ( -0.1732050807568886464, -0.09999999999999838185, -0.05003937007874013909 ) ) ;
#585 = ORIENTED_EDGE ( 'NONE', *, *, #598, .T. ) ;
#586 = AXIS2_PLACEMENT_3D ( 'NONE', #146, #295, #498 ) ;
#587 = ADVANCED_FACE ( 'NONE', ( #613 ), #300, .F. ) ;
#588 = CARTESIAN_POINT ( 'NONE',  ( 0.1562500000000000000, 0.000000000000000000, -0.04999999999999998196 ) ) ;
#589 = ORIENTED_EDGE ( 'NONE', *, *, #233, .T. ) ;
#590 = CARTESIAN_POINT ( 'NONE',  ( 0.000000000000000000, 0.000000000000000000, 0.2500000000000000000 ) ) ;
#591 = ORIENTED_EDGE ( 'NONE', *, *, #520, .T. ) ;
#592 = CIRCLE ( 'NONE', #253, 0.1590074414334491926 ) ;
#593 = ORIENTED_EDGE ( 'NONE', *, *, #3, .F. ) ;
#594 = EDGE_CURVE ( 'NONE', #583, #467, #359, .T. ) ;
#595 = AXIS2_PLACEMENT_3D ( 'NONE', #422, #571, #115 ) ;
#596 = ORIENTED_EDGE ( 'NONE', *, *, #271, .T. ) ;
#597 = VECTOR ( 'NONE', #323, 39.37007874015748143 ) ;
#598 = EDGE_CURVE ( 'NONE', #181, #9, #660, .T. ) ;
#599 = LINE ( 'NONE', #249, #444 ) ;
#600 = EDGE_LOOP ( 'NONE', ( #503, #548 ) ) ;
#601 = DIRECTION ( 'NONE',  ( -0.000000000000000000, 0.000000000000000000, 1.000000000000000000 ) ) ;
#602 =( CONVERSION_BASED_UNIT ( 'INCH', #407 ) LENGTH_UNIT ( ) NAMED_UNIT ( #544 ) );
#603 = VERTEX_POINT ( 'NONE', #355 ) ;
#604 = DIRECTION ( 'NONE',  ( 0.000000000000000000, 0.000000000000000000, 1.000000000000000000 ) ) ;
#605 = CARTESIAN_POINT ( 'NONE',  ( -0.1533467814122908834, -0.02998044580207356868, -0.04999999999999998196 ) ) ;
#606 = AXIS2_PLACEMENT_3D ( 'NONE', #621, #511, #657 ) ;
#607 = PRESENTATION_STYLE_ASSIGNMENT (( #299 ) ) ;
#608 = DIRECTION ( 'NONE',  ( 1.000000000000000000, 0.000000000000000000, 0.000000000000000000 ) ) ;
#609 =( GEOMETRIC_REPRESENTATION_CONTEXT ( 3 ) GLOBAL_UNCERTAINTY_ASSIGNED_CONTEXT ( ( #78 ) ) GLOBAL_UNIT_ASSIGNED_CONTEXT ( ( #602, #15, #425 ) ) REPRESENTATION_CONTEXT ( 'NONE', 'WORKASPACE' ) );
#610 = CARTESIAN_POINT ( 'NONE',  ( 0.1431480500757847940, -0.04378045351805866237, -0.04999999999999998196 ) ) ;
#611 = VERTEX_POINT ( 'NONE', #306 ) ;
#612 = DIRECTION ( 'NONE',  ( 1.000000000000000000, 0.000000000000000000, 0.000000000000000000 ) ) ;
#613 = FACE_OUTER_BOUND ( 'NONE', #567, .T. ) ;
#614 = CARTESIAN_POINT ( 'NONE',  ( 0.2500000000000000000, 0.000000000000000000, 0.000000000000000000 ) ) ;
#615 = ADVANCED_FACE ( 'NONE', ( #499 ), #412, .F. ) ;
#616 = DIRECTION ( 'NONE',  ( -0.000000000000000000, -0.000000000000000000, 1.000000000000000000 ) ) ;
#617 = CARTESIAN_POINT ( 'NONE',  ( -0.1732050807568886464, -0.09999999999999838185, 0.2500000000000000000 ) ) ;
#618 = ORIENTED_EDGE ( 'NONE', *, *, #460, .F. ) ;
#619 = CARTESIAN_POINT ( 'NONE',  ( 0.000000000000000000, 0.000000000000000000, -0.04999999999999998196 ) ) ;
#620 = CIRCLE ( 'NONE', #397, 0.1590074414334491926 ) ;
#621 = CARTESIAN_POINT ( 'NONE',  ( -0.04421873895759580175, 0.1288750000000000173, -0.04999999999999998196 ) ) ;
#622 = DIRECTION ( 'NONE',  ( 1.000000000000000000, 0.000000000000000000, 0.000000000000000000 ) ) ;
#623 = EDGE_CURVE ( 'NONE', #188, #9, #154, .T. ) ;
#624 = LINE ( 'NONE', #483, #282 ) ;
#625 = CARTESIAN_POINT ( 'NONE',  ( 0.000000000000000000, 0.000000000000000000, 0.2500000000000000000 ) ) ;
#626 = AXIS2_PLACEMENT_3D ( 'NONE', #403, #31, #391 ) ;
#627 = DIRECTION ( 'NONE',  ( -0.000000000000000000, -0.000000000000000000, -1.000000000000000000 ) ) ;
#628 = ORIENTED_EDGE ( 'NONE', *, *, #12, .F. ) ;
#629 = LINE ( 'NONE', #381, #23 ) ;
#630 = CIRCLE ( 'NONE', #380, 0.06374999999999998723 ) ;
#631 = CARTESIAN_POINT ( 'NONE',  ( -0.1732050807568886464, -0.09999999999999838185, -0.04999999999999998196 ) ) ;
#632 = ORIENTED_EDGE ( 'NONE', *, *, #240, .F. ) ;
#633 = DIRECTION ( 'NONE',  ( 1.000000000000000000, 0.000000000000000000, 0.000000000000000000 ) ) ;
#634 = DIRECTION ( 'NONE',  ( 1.000000000000000000, -1.776356839400250465E-15, 0.000000000000000000 ) ) ;
#635 = ORIENTED_EDGE ( 'NONE', *, *, #352, .T. ) ;
#636 = ADVANCED_FACE ( 'NONE', ( #459, #556 ), #41, .T. ) ;
#637 = PRODUCT_DEFINITION ( 'UNKNOWN', '', #382, #490 ) ;
#638 = CARTESIAN_POINT ( 'NONE',  ( 0.1094890099737340361, -0.1020796211088082495, -0.04999999999999998196 ) ) ;
#639 = EDGE_LOOP ( 'NONE', ( #521, #574, #232, #147 ) ) ;
#640 = VECTOR ( 'NONE', #429, 39.37007874015748143 ) ;
#641 = ORIENTED_EDGE ( 'NONE', *, *, #211, .T. ) ;
#642 = EDGE_CURVE ( 'NONE', #554, #557, #656, .T. ) ;
#643 = ORIENTED_EDGE ( 'NONE', *, *, #240, .T. ) ;
#644 = AXIS2_PLACEMENT_3D ( 'NONE', #204, #451, #411 ) ;
#645 = EDGE_LOOP ( 'NONE', ( #618, #43, #648, #134 ) ) ;
#646 = CARTESIAN_POINT ( 'NONE',  ( -0.2500000000000000000, -3.061616997868383018E-17, 0.000000000000000000 ) ) ;
#647 = AXIS2_PLACEMENT_3D ( 'NONE', #14, #616, #622 ) ;
#648 = ORIENTED_EDGE ( 'NONE', *, *, #478, .F. ) ;
#649 = FACE_BOUND ( 'NONE', #138, .T. ) ;
#650 = DIRECTION ( 'NONE',  ( 1.000000000000000000, 0.000000000000000000, 0.000000000000000000 ) ) ;
#651 = ORIENTED_EDGE ( 'NONE', *, *, #262, .F. ) ;
#652 = CARTESIAN_POINT ( 'NONE',  ( 0.000000000000000000, 0.000000000000000000, 0.2500000000000000000 ) ) ;
#653 = DIRECTION ( 'NONE',  ( -0.000000000000000000, -0.000000000000000000, 1.000000000000000000 ) ) ;
#654 = CARTESIAN_POINT ( 'NONE',  ( -0.1094890099737353822, -0.1020796211088067645, -0.05003937007874013909 ) ) ;
#655 = FILL_AREA_STYLE_COLOUR ( '', #10 ) ;
#656 = LINE ( 'NONE', #89, #65 ) ;
#657 = DIRECTION ( 'NONE',  ( 1.000000000000000000, 0.000000000000000000, 0.000000000000000000 ) ) ;
#658 = CIRCLE ( 'NONE', #34, 0.1562500000000000000 ) ;
#659 = DIRECTION ( 'NONE',  ( 0.000000000000000000, 0.000000000000000000, 1.000000000000000000 ) ) ;
#660 = LINE ( 'NONE', #646, #55 ) ;
ENDSEC;
END-ISO-10303-21;
